<svg width="205" height="51" viewBox="0 0 205 51" fill="none" xmlns="http://www.w3.org/2000/svg">
<g clip-path="url(#clip0_3268_3747)">
<mask id="mask0_3268_3747" style="mask-type:luminance" maskUnits="userSpaceOnUse" x="0" y="0" width="205" height="51">
<path d="M205 0H0V51H205V0Z" fill="white"/>
</mask>
<g mask="url(#mask0_3268_3747)">
<path d="M33.7612 3.24719C33.9476 3.35307 34.134 3.45894 34.3261 3.56803C35.743 4.42846 36.8934 5.527 38.075 6.68539C38.1986 6.79693 38.3221 6.90847 38.4494 7.02339C40.6777 9.09353 42.1876 12.3751 42.4304 15.4197C42.6272 20.4506 41.2772 24.2471 38.0054 28.0182C33.7727 32.5554 27.699 34.7308 21.6469 34.9455C19.7463 34.9855 17.8442 34.9681 15.9433 34.9551C15.9415 35.1358 15.9398 35.3165 15.938 35.5027C15.9304 36.1892 15.918 36.8755 15.9044 37.5619C15.8992 37.856 15.8951 38.1501 15.8925 38.4442C15.8585 41.9715 15.2944 45.2403 12.8259 47.8826C10.3299 50.362 7.52167 51.0779 4.10375 51.0358C3.91251 51.0357 3.72127 51.0356 3.52423 51.0354C2.6736 51.0304 1.84213 51.0008 0.996745 50.9028C0.845238 50.8853 0.693731 50.8678 0.537634 50.8498C0.364809 50.8296 0.36481 50.8296 0.188494 50.809C0.15515 46.4785 0.124085 42.1481 0.0956941 37.8176C0.0824576 35.8066 0.068492 33.7957 0.0527714 31.7847C0.0390621 30.0308 0.0267584 28.2769 0.016102 26.5229C0.010418 25.5953 0.00405838 24.6677 -0.00398854 23.7401C-0.0115607 22.8646 -0.017235 21.9892 -0.0215348 21.1137C-0.0234216 20.7946 -0.0259674 20.4756 -0.0292677 20.1565C-0.0819934 14.9388 0.903554 10.457 4.55149 6.58112C5.57705 5.51726 6.62454 4.60025 7.87834 3.82022C7.98463 3.75306 8.09092 3.68591 8.20043 3.61671C15.891 -1.19458 25.9241 -1.27148 33.7612 3.24719Z" fill="#136972"/>
<path d="M32.1889 14.3139C32.5519 14.3152 32.5519 14.3152 32.9222 14.3165C33.514 14.3187 34.1057 14.3219 34.6974 14.3258C35.1579 15.6005 35.1281 16.8353 35.1194 18.1819C35.1216 18.513 35.1216 18.513 35.1238 18.8508C35.114 23.3201 33.7181 27.3609 30.7009 30.6521C27.8678 33.4142 23.8332 34.9764 19.9295 34.9804C19.583 34.9808 19.583 34.9808 19.2295 34.9812C18.9917 34.9804 18.7539 34.9797 18.5089 34.9789C18.2675 34.9797 18.0261 34.9804 17.7774 34.9812C17.5476 34.9809 17.3177 34.9807 17.081 34.9804C16.8713 34.9802 16.6616 34.98 16.4455 34.9798C15.9417 34.9551 15.9417 34.9551 15.5666 34.764C15.2191 33.5276 15.3247 32.1738 15.3204 30.8961C15.3199 30.7583 15.3194 30.6206 15.3189 30.4787C15.3181 28.378 15.4566 26.4474 16.1293 24.4494C16.2072 24.1905 16.2072 24.1905 16.2868 23.9264C17.4628 20.4659 20.1182 17.7087 23.2564 16.0449C26.2143 14.5957 28.9438 14.2918 32.1889 14.3139Z" fill="#B1E723"/>
<path d="M125.951 29.9962C126.433 30.4261 126.895 30.869 127.352 31.3258C127.535 31.5057 127.535 31.5057 127.722 31.6892C129.737 33.8267 130.434 36.8523 130.391 39.7356C130.352 40.3106 130.258 40.8809 130.165 41.4494C124.718 41.4494 119.272 41.4494 113.66 41.4494C114.026 39.5858 114.298 38.5341 115.723 37.3546C116.896 36.7324 117.865 36.6207 119.162 36.6368C119.41 36.6377 119.41 36.6377 119.662 36.6385C120.186 36.6406 120.709 36.6454 121.233 36.6503C121.589 36.6522 121.945 36.6539 122.302 36.6555C123.172 36.6597 124.043 36.6663 124.913 36.6742C123.923 34.894 122.902 33.5109 120.882 32.9375C118.923 32.5894 117.123 32.8066 115.447 33.9284C114.031 35.0836 113.145 36.6524 112.898 38.4888C112.829 40.3767 113.368 42.1284 114.598 43.5506C116.119 44.9866 117.727 45.4816 119.776 45.4942C120.056 45.4987 120.336 45.5033 120.616 45.5081C121.052 45.5147 121.489 45.5204 121.926 45.5229C125.399 45.5474 125.399 45.5474 126.853 46.791C127.861 48.0584 128.116 48.81 128.102 50.427C126.719 50.4403 125.337 50.4505 123.954 50.4567C123.311 50.4596 122.669 50.4637 122.027 50.4702C121.286 50.4777 120.546 50.4804 119.805 50.4829C119.464 50.4874 119.464 50.4874 119.116 50.4919C116.152 50.4925 113.607 49.5305 111.456 47.4238C111.316 47.2802 111.177 47.1367 111.034 46.9888C110.913 46.8669 110.791 46.745 110.666 46.6194C108.632 44.4397 107.937 41.6361 107.968 38.7071C108.056 35.8211 109.13 33.0899 111.113 31.0043C115.184 27.2793 121.482 26.3299 125.951 29.9962Z" fill="#136972"/>
<path d="M74.9953 30.0223C75.4638 30.4396 75.9028 30.8711 76.3361 31.3258C76.4572 31.4475 76.5783 31.5691 76.7031 31.6944C79.1097 34.2681 79.431 37.6209 79.3919 41.007C79.3909 41.2812 79.3901 41.5555 79.3895 41.8298C79.3874 42.541 79.3819 43.2522 79.3756 43.9634C79.3698 44.6934 79.3673 45.4234 79.3645 46.1535C79.3585 47.578 79.3489 49.0025 79.337 50.427C77.9155 50.4409 77.0737 50.3149 75.9698 49.3391C74.599 47.8903 74.3779 46.1682 74.3909 44.2184C74.3877 43.8407 74.3844 43.463 74.381 43.0853C74.3791 42.499 74.3785 41.9127 74.3788 41.3264C74.3781 40.7543 74.373 40.1823 74.3675 39.6102C74.369 39.4371 74.3705 39.2639 74.3721 39.0855C74.3511 37.2348 73.612 35.7409 72.3974 34.382C71.0192 33.0831 69.4134 32.7344 67.5722 32.789C65.7772 32.9788 64.369 33.7376 63.2071 35.1461C62.1807 36.7238 61.7201 38.238 61.9718 40.1198C62.347 41.9378 63.132 43.4037 64.6672 44.4519C66.1756 45.3405 67.5031 45.5042 69.2206 45.5442C70.9149 45.5885 72.2652 45.6642 73.4934 46.9761C74.3881 48.1129 74.6648 48.9687 74.6481 50.427C73.4873 50.4412 72.3266 50.4516 71.1657 50.4584C70.7717 50.4613 70.3777 50.4652 69.9838 50.4702C66.2036 50.5169 63.3 50.1873 60.4465 47.4238C60.3053 47.2802 60.1641 47.1367 60.0186 46.9888C59.8968 46.8669 59.7749 46.745 59.6494 46.6194C57.6178 44.437 56.9209 41.6375 56.9522 38.7071C57.0403 35.8211 58.1139 33.0899 60.0977 31.0043C64.2699 27.1866 70.3992 26.4508 74.9953 30.0223Z" fill="#136972"/>
<path d="M163.666 27.6489C166.851 27.7197 169.593 29.0072 171.802 31.3258C171.923 31.4475 172.044 31.5691 172.169 31.6944C174.5 34.1872 174.894 37.3735 174.858 40.6712C174.857 40.9546 174.856 41.238 174.855 41.5214C174.853 42.2584 174.848 42.9953 174.841 43.7323C174.836 44.4878 174.833 45.2434 174.83 45.999C174.824 47.475 174.815 48.951 174.803 50.427C173.384 50.4409 172.5 50.3324 171.429 49.3055C170.03 47.7449 169.893 46.2227 169.921 44.1624C169.923 43.8819 169.926 43.6013 169.928 43.3208C169.933 42.8875 169.938 42.4542 169.944 42.021C170.005 38.0182 170.005 38.0182 168.113 34.6089C166.619 33.2161 165.06 32.7775 163.071 32.8025C161.447 32.9316 160.209 33.569 159.038 34.7081C157.647 36.3775 157.418 38.2144 157.514 40.32C157.587 41.1205 157.877 41.7365 158.298 42.4045C158.375 42.5372 158.452 42.6699 158.532 42.8067C159.49 44.2834 160.937 45.0828 162.611 45.4607C163.287 45.5077 163.962 45.5115 164.639 45.5204C167.483 45.6115 167.483 45.6115 168.613 46.6067C169.052 47.084 169.413 47.5717 169.739 48.1348C169.81 48.2449 169.882 48.355 169.956 48.4684C170.195 49.1201 170.123 49.7328 170.114 50.427C168.95 50.4412 167.785 50.4516 166.621 50.4584C166.226 50.4613 165.831 50.4652 165.435 50.4702C164.864 50.4772 164.293 50.4804 163.721 50.4829C163.46 50.4874 163.46 50.4874 163.194 50.4919C160.395 50.4926 157.897 49.3792 155.892 47.4081C155.69 47.2005 155.69 47.2005 155.484 46.9888C155.329 46.8403 155.329 46.8403 155.171 46.6888C153.183 44.6101 152.407 41.647 152.414 38.8352C152.498 35.918 153.52 33.2659 155.482 31.111C157.876 28.8384 160.456 27.8744 163.666 27.6489Z" fill="#136972"/>
<path d="M135.228 16.427C137.015 16.6292 137.838 16.9001 139.038 18.1938C140.74 20.6124 140.104 22.9174 140.104 25.9775C144.004 25.9775 147.903 25.9775 151.921 25.9775C151.921 27.3818 151.819 27.8226 150.983 28.8427C149.273 30.5568 146.983 30.972 144.665 30.9625C144.534 30.9622 144.402 30.9619 144.267 30.9617C143.853 30.9606 143.438 30.9582 143.023 30.9558C142.74 30.9548 142.457 30.9539 142.174 30.9532C141.484 30.9511 140.794 30.9478 140.104 30.9438C140.112 32.2419 140.126 33.5398 140.143 34.8377C140.149 35.2786 140.153 35.7195 140.155 36.1604C140.159 36.7969 140.168 37.4331 140.178 38.0694C140.178 38.2643 140.178 38.4592 140.178 38.66C140.215 40.5211 140.716 42.0374 141.982 43.4066C143.521 44.7873 145.288 45.137 147.268 45.2764C148.653 45.4033 149.845 45.8401 150.76 46.953C151.66 48.0824 151.95 48.9526 151.921 50.427C150.897 50.4461 149.873 50.4598 148.849 50.4689C148.502 50.4728 148.155 50.4779 147.808 50.4846C145.723 50.5236 143.935 50.4819 141.98 49.6629C141.837 49.6035 141.693 49.544 141.545 49.4828C139.106 48.4099 136.984 46.0287 135.936 43.575C135.005 40.9701 135.163 38.2814 135.193 35.552C135.196 35.104 135.198 34.6561 135.201 34.2082C135.206 33.12 135.217 32.032 135.228 30.9438C133.681 30.9438 132.133 30.9438 130.539 30.9438C130.761 29.1385 131.232 28.376 132.547 27.2407C133.302 26.7002 134.285 26.1685 135.228 26.1685C135.228 22.9538 135.228 19.7391 135.228 16.427Z" fill="#136972"/>
<path d="M82.5254 27.6966C84.5798 28.077 85.5003 28.5116 86.8392 29.9888C86.9284 29.9171 87.0176 29.8455 87.1096 29.7716C89.5492 27.9551 92.5291 27.4048 95.4865 27.822C98.6023 28.3619 101.086 30.0956 102.957 32.651C104.622 35.2635 104.904 37.8837 104.881 40.9324C104.881 41.2077 104.88 41.4831 104.88 41.7584C104.878 42.476 104.875 43.1935 104.87 43.911C104.867 44.646 104.865 45.3811 104.863 46.1162C104.859 47.5531 104.853 48.99 104.845 50.427C103.473 50.4424 102.534 50.252 101.464 49.3391C100.105 47.8969 99.8856 46.1603 99.8986 44.2251C99.8953 43.8483 99.892 43.4715 99.8887 43.0947C99.8868 42.51 99.8862 41.9254 99.8865 41.3408C99.8858 40.7701 99.8807 40.1995 99.8752 39.6289C99.8767 39.4567 99.8782 39.2845 99.8798 39.1072C99.8609 37.445 99.3779 35.9188 98.2487 34.6872C96.7723 33.376 95.1504 32.7506 93.1978 32.7942C91.459 32.9849 89.9054 33.7976 88.7675 35.1461C87.026 37.5805 87.3205 40.5059 87.3343 43.3693C87.3466 47.5888 87.3466 47.5888 86.2765 48.8989C85.0772 50.0396 84.1903 50.427 82.5254 50.427C82.5254 42.926 82.5254 35.4249 82.5254 27.6966Z" fill="#136972"/>
<path d="M48.9524 14.3258C50.389 14.3026 51.38 14.6276 52.4911 15.5816C54.0234 17.2469 53.9079 19.3318 53.8928 21.478C53.8926 21.7944 53.8927 22.1108 53.893 22.4272C53.8932 23.2819 53.8899 24.1366 53.886 24.9913C53.8824 25.886 53.8821 26.7808 53.8815 27.6756C53.8797 29.3681 53.8751 31.0606 53.8694 32.7532C53.8631 34.6808 53.8601 36.6085 53.8572 38.5362C53.8514 42.4998 53.8415 46.4634 53.8289 50.427C52.4573 50.4424 51.5183 50.2519 50.4485 49.3391C48.7911 47.58 48.8722 45.385 48.8886 43.0796C48.8887 42.7651 48.8886 42.4505 48.8883 42.136C48.8881 41.2872 48.8914 40.4385 48.8954 39.5897C48.8989 38.7008 48.8992 37.8119 48.8999 36.9229C48.9016 35.2419 48.9063 33.5609 48.9119 31.8799C48.9182 29.9652 48.9213 28.0505 48.9241 26.1357C48.93 22.1991 48.9399 18.2625 48.9524 14.3258Z" fill="#136972"/>
<path d="M32.1902 14.3139C32.5532 14.3152 32.5532 14.3152 32.9236 14.3165C33.5153 14.3187 34.1071 14.3219 34.6988 14.3258C34.3244 14.7722 33.9492 15.2177 33.5735 15.6629C33.4708 15.7857 33.3682 15.9084 33.2625 16.0349C32.3151 17.1562 31.2925 18.1883 30.2568 19.2242C29.6199 19.8658 29 20.5105 28.4156 21.2022C27.5821 22.1889 26.6667 23.0881 25.7554 23.9995C25.1205 24.6391 24.5024 25.2816 23.9201 25.9716C23.0479 27.0041 22.0862 27.9436 21.1331 28.8979C20.3509 29.6864 19.6053 30.4895 18.888 31.3395C18.3513 31.959 17.7748 32.5367 17.1974 33.1166C17.0231 33.2927 17.0231 33.2927 16.8453 33.4725C16.6324 33.6877 16.4193 33.9027 16.2059 34.1174C15.9925 34.3322 15.7801 34.548 15.568 34.764C15.2758 33.4947 15.3262 32.1927 15.3218 30.8961C15.3213 30.7583 15.3208 30.6206 15.3203 30.4787C15.3195 28.378 15.458 26.4474 16.1306 24.4494C16.2086 24.1905 16.2086 24.1905 16.2882 23.9264C17.4642 20.4659 20.1196 17.7087 23.2578 16.0449C26.2156 14.5957 28.9452 14.2918 32.1902 14.3139Z" fill="#60B33F"/>
</g>
</g>
<defs>
<clipPath id="clip0_3268_3747">
<rect width="205" height="51" fill="white"/>
</clipPath>
</defs>
</svg>
