<svg width="756" height="185" viewBox="0 0 756 185" fill="none" xmlns="http://www.w3.org/2000/svg">
<g clip-path="url(#clip0_2036_1152)">
<path d="M124.501 11.779C125.189 12.1631 125.876 12.5472 126.585 12.9429C131.81 16.064 136.052 20.0489 140.41 24.2509C140.865 24.6555 141.321 25.0602 141.791 25.477C150.008 32.9864 155.576 44.8901 156.472 55.9343C157.197 74.1836 152.219 87.9552 140.153 101.635C124.544 118.093 102.145 125.984 79.8262 126.763C72.8169 126.908 65.8025 126.845 58.7923 126.798C58.7858 127.453 58.7794 128.109 58.7727 128.784C58.7446 131.275 58.699 133.764 58.6488 136.254C58.6295 137.321 58.6147 138.387 58.6049 139.454C58.4796 152.249 56.3991 164.107 47.2959 173.692C38.091 182.686 27.735 185.283 15.1304 185.13C14.4251 185.129 13.7198 185.129 12.9932 185.129C9.85625 185.11 6.78996 185.003 3.67235 184.647C3.11362 184.584 2.55489 184.52 1.97923 184.455C1.34189 184.382 1.34189 184.382 0.691675 184.307C0.568707 168.599 0.454147 152.89 0.349447 137.182C0.300633 129.887 0.249131 122.592 0.191156 115.298C0.140599 108.935 0.0952255 102.573 0.0559266 96.2105C0.0349652 92.8456 0.0115122 89.4807 -0.0181632 86.1159C-0.0460877 82.9402 -0.0670136 79.7646 -0.0828705 76.5889C-0.0898286 75.4315 -0.0992169 74.2742 -0.111388 73.1168C-0.30583 54.1899 3.32868 37.9323 16.7815 23.8727C20.5636 20.0136 24.4266 16.6872 29.0503 13.8577C29.4423 13.6141 29.8343 13.3705 30.2381 13.1195C58.5994 -4.33328 95.5996 -4.61221 124.501 11.779Z" fill="white"/>
<path d="M118.707 52.4229C120.045 52.4276 120.046 52.4279 121.412 52.4327C123.476 52.4403 125.541 52.4506 127.606 52.4639C129.146 56.8725 129.048 61.1626 129.016 65.9503V65.9571L129.033 68.3839C128.996 84.4816 123.885 99.0103 112.855 110.846C102.506 120.76 87.763 126.375 73.4975 126.39C72.2204 126.391 72.2199 126.39 70.9174 126.392C70.0409 126.389 69.1643 126.388 68.2612 126.385H68.2583C67.368 126.388 66.4773 126.389 65.56 126.392C64.7134 126.391 63.8668 126.391 62.9946 126.39C62.2286 126.389 61.4621 126.389 60.6733 126.388H60.6743C59.7243 126.342 59.3171 126.32 58.9692 126.236C58.665 126.163 58.3997 126.04 57.8325 125.757C56.7975 121.968 56.948 117.887 56.9926 113.837L57.0014 112.072L56.9956 110.56C56.9926 102.961 57.503 96.0214 59.9575 88.8506L59.9594 88.8438L59.9624 88.836L60.5434 86.9385C64.8334 74.5377 74.5186 64.6335 85.9917 58.6485C96.1243 53.7667 105.528 52.4968 116.491 52.4229H118.707Z" fill="white" stroke="black"/>
<path d="M464.481 108.81C466.257 110.369 467.962 111.976 469.647 113.633C470.324 114.285 470.324 114.285 471.014 114.951C478.443 122.705 481.013 133.68 480.854 144.139C480.712 146.225 480.365 148.293 480.022 150.356C459.936 150.356 439.849 150.356 419.155 150.356C420.504 143.595 421.506 139.781 426.763 135.502C431.089 133.245 434.662 132.84 439.446 132.898C440.358 132.901 440.358 132.901 441.289 132.904C443.22 132.912 445.15 132.929 447.081 132.947C448.395 132.954 449.709 132.96 451.023 132.966C454.234 132.981 457.444 133.005 460.655 133.034C457.003 126.576 453.238 121.559 445.789 119.479C438.564 118.216 431.925 119.004 425.744 123.073C420.524 127.264 417.256 132.955 416.345 139.616C416.089 146.464 418.076 152.819 422.613 157.978C428.223 163.187 434.153 164.982 441.71 165.028C442.742 165.044 443.774 165.061 444.806 165.078C446.416 165.102 448.026 165.123 449.636 165.132C462.444 165.221 462.444 165.221 467.807 169.732C471.524 174.33 472.467 177.056 472.414 182.921C467.314 182.97 462.215 183.007 457.116 183.029C454.747 183.04 452.379 183.054 450.01 183.078C447.279 183.105 444.547 183.115 441.815 183.124C440.558 183.14 440.558 183.14 439.275 183.157C428.345 183.159 418.958 179.67 411.025 172.027C410.512 171.507 409.999 170.986 409.471 170.449C409.023 170.007 408.574 169.565 408.112 169.11C400.613 161.203 398.047 151.033 398.163 140.408C398.488 129.939 402.447 120.032 409.763 112.466C424.776 98.9542 448 95.5105 464.481 108.81Z" fill="white"/>
<path d="M276.567 108.905C278.295 110.418 279.914 111.983 281.511 113.633C281.958 114.074 282.405 114.515 282.865 114.97C291.74 124.306 292.925 136.468 292.781 148.751C292.777 149.746 292.774 150.741 292.772 151.735C292.764 154.316 292.744 156.895 292.721 159.475C292.699 162.123 292.69 164.771 292.68 167.419C292.658 172.587 292.622 177.754 292.578 182.921C287.336 182.972 284.231 182.515 280.161 178.975C275.105 173.72 274.29 167.473 274.338 160.4C274.326 159.03 274.314 157.66 274.302 156.29C274.295 154.163 274.292 152.036 274.293 149.909C274.291 147.834 274.272 145.759 274.252 143.684C274.257 143.056 274.263 142.428 274.269 141.781C274.191 135.067 271.465 129.648 266.986 124.719C261.904 120.007 255.982 118.742 249.192 118.941C242.573 119.629 237.379 122.381 233.094 127.491C229.309 133.214 227.61 138.706 228.539 145.533C229.922 152.127 232.817 157.445 238.479 161.247C244.041 164.47 248.937 165.064 255.271 165.21C261.519 165.37 266.499 165.645 271.028 170.403C274.328 174.527 275.348 177.632 275.286 182.921C271.006 182.973 266.725 183.011 262.444 183.036C260.991 183.046 259.538 183.06 258.085 183.078C244.145 183.247 233.437 182.052 222.914 172.027C222.393 171.507 221.872 170.986 221.336 170.449C220.886 170.007 220.437 169.565 219.974 169.11C212.482 161.193 209.912 151.038 210.027 140.408C210.352 129.939 214.312 120.032 221.628 112.466C237.014 98.618 259.617 95.9492 276.567 108.905Z" fill="white"/>
<path d="M603.572 100.295C615.315 100.552 625.426 105.222 633.574 113.633C634.02 114.074 634.467 114.515 634.927 114.97C643.523 124.013 644.978 135.571 644.843 147.533C644.839 148.561 644.836 149.589 644.834 150.617C644.826 153.29 644.806 155.963 644.783 158.637C644.761 161.377 644.752 164.118 644.742 166.859C644.72 172.213 644.684 177.567 644.64 182.921C639.407 182.972 636.15 182.578 632.198 178.853C627.039 173.192 626.535 167.671 626.638 160.197C626.647 159.179 626.655 158.162 626.664 157.144C626.681 155.572 626.7 154.001 626.723 152.429C626.947 137.909 626.947 137.909 619.97 125.542C614.46 120.49 608.713 118.899 601.376 118.989C595.389 119.458 590.82 121.77 586.502 125.902C581.374 131.957 580.528 138.621 580.882 146.259C581.154 149.162 582.222 151.397 583.773 153.82C584.058 154.302 584.344 154.783 584.638 155.279C588.169 160.636 593.508 163.535 599.682 164.906C602.174 165.077 604.663 165.091 607.16 165.123C617.646 165.454 617.646 165.454 621.815 169.064C623.434 170.795 624.765 172.564 625.965 174.607C626.229 175.006 626.493 175.405 626.765 175.817C627.648 178.181 627.383 180.403 627.349 182.921C623.055 182.973 618.762 183.011 614.468 183.036C613.011 183.046 611.553 183.06 610.095 183.078C607.989 183.104 605.882 183.115 603.775 183.124C602.813 183.14 602.813 183.14 601.831 183.157C591.507 183.159 582.297 179.12 574.9 171.971C574.157 171.218 574.157 171.218 573.398 170.449C572.826 169.911 572.826 169.911 572.242 169.361C564.911 161.821 562.048 151.072 562.076 140.873C562.383 130.291 566.156 120.67 573.39 112.853C582.219 104.61 591.732 101.113 603.572 100.295Z" fill="white"/>
<path d="M498.697 59.588C505.286 60.3214 508.323 61.3042 512.747 65.9972C519.023 74.7703 516.681 83.1319 516.681 94.2322C531.061 94.2322 545.441 94.2322 560.256 94.2322C560.256 99.3262 559.882 100.925 556.798 104.625C550.491 110.843 542.049 112.349 533.5 112.315C533.015 112.314 532.531 112.313 532.032 112.312C530.503 112.308 528.974 112.299 527.445 112.29C526.401 112.287 525.356 112.284 524.312 112.281C521.768 112.273 519.224 112.261 516.681 112.247C516.71 116.956 516.76 121.664 516.824 126.372C516.844 127.971 516.858 129.571 516.868 131.17C516.883 133.479 516.915 135.787 516.951 138.095C516.952 138.802 516.953 139.509 516.953 140.237C517.089 146.988 518.935 152.489 523.603 157.455C529.282 162.464 535.795 163.732 543.097 164.238C548.204 164.698 552.603 166.283 555.976 170.32C559.294 174.416 560.364 177.573 560.256 182.921C556.481 182.991 552.706 183.041 548.929 183.074C547.649 183.087 546.369 183.106 545.088 183.13C537.401 183.272 530.806 183.12 523.597 180.15C523.068 179.934 522.539 179.719 521.993 179.496C512.997 175.605 505.174 166.967 501.308 158.066C497.876 148.617 498.456 138.864 498.567 128.963C498.578 127.338 498.587 125.713 498.596 124.088C498.617 120.141 498.657 116.195 498.697 112.247C492.991 112.247 487.285 112.247 481.405 112.247C482.222 105.698 483.959 102.932 488.808 98.8144C491.595 96.8537 495.219 94.9251 498.697 94.9251C498.697 83.2639 498.697 71.6026 498.697 59.588Z" fill="white"/>
<path d="M304.337 100.468C311.913 101.848 315.308 103.424 320.245 108.783C320.574 108.523 320.903 108.263 321.242 107.995C330.239 101.406 341.228 99.4096 352.135 100.923C363.625 102.881 372.783 109.17 379.686 118.44C385.823 127.917 386.866 137.421 386.781 148.48C386.778 149.479 386.776 150.478 386.775 151.477C386.77 154.08 386.756 156.682 386.741 159.285C386.727 161.951 386.72 164.618 386.713 167.284C386.699 172.497 386.675 177.709 386.646 182.921C381.588 182.978 378.125 182.287 374.18 178.975C369.169 173.744 368.358 167.444 368.406 160.424C368.394 159.057 368.382 157.691 368.369 156.324C368.362 154.203 368.36 152.082 368.361 149.962C368.358 147.891 368.34 145.822 368.319 143.752C368.325 143.127 368.331 142.503 368.336 141.859C368.267 135.83 366.486 130.294 362.321 125.826C356.877 121.07 350.895 118.801 343.695 118.96C337.282 119.651 331.553 122.599 327.356 127.491C320.934 136.321 322.02 146.933 322.071 157.32C322.116 172.626 322.116 172.626 318.17 177.378C313.747 181.516 310.477 182.921 304.337 182.921C304.337 155.712 304.337 128.502 304.337 100.468Z" fill="white"/>
<path d="M180.527 51.9663C185.825 51.8819 189.479 53.0608 193.577 56.5215C199.228 62.5622 198.802 70.125 198.746 77.9104C198.746 79.0581 198.746 80.2059 198.747 81.3536C198.748 84.454 198.735 87.5542 198.721 90.6546C198.708 93.9004 198.707 97.1462 198.704 100.392C198.698 106.532 198.681 112.671 198.66 118.81C198.637 125.803 198.625 132.796 198.615 139.788C198.593 154.166 198.557 168.544 198.511 182.921C193.452 182.977 189.99 182.286 186.044 178.975C179.932 172.594 180.231 164.632 180.291 156.269C180.292 155.128 180.292 153.987 180.291 152.846C180.29 149.767 180.302 146.689 180.317 143.61C180.33 140.385 180.331 137.161 180.333 133.936C180.34 127.838 180.357 121.741 180.378 115.643C180.401 108.697 180.412 101.752 180.423 94.8061C180.444 80.5261 180.481 66.2462 180.527 51.9663Z" fill="white"/>
<path d="M118.707 52.4229C120.045 52.4276 120.046 52.4279 121.412 52.4327C123.234 52.4394 125.056 52.4488 126.878 52.46C125.73 53.8046 124.582 55.1492 123.43 56.4913L123.428 56.4922C123.049 56.9385 122.674 57.3803 122.284 57.8399C118.806 61.8894 115.048 65.6205 111.228 69.379L111.226 69.3799C108.875 71.7099 106.578 74.0597 104.41 76.584C101.353 80.1436 97.9937 83.3884 94.6275 86.7003L94.6265 86.7022C92.5753 88.7347 90.5648 90.7813 88.647 92.9483L87.8306 93.8848C84.6308 97.6104 81.1031 101.001 77.5816 104.47L77.5806 104.471C74.6881 107.339 71.9284 110.261 69.273 113.357C67.3083 115.587 65.1974 117.669 63.0669 119.773L63.065 119.774L61.7671 121.065L59.4097 123.404C58.8394 123.969 58.2719 124.536 57.7046 125.104C57.0846 121.988 57.0033 118.82 56.9986 115.607L57.0015 112.072L56.9956 110.56C56.9927 102.961 57.5021 96.0214 59.9566 88.8506L59.9595 88.8438L59.9624 88.836C60.2483 87.9024 60.2495 87.8963 60.5376 86.9551C64.8247 74.5465 74.5136 64.6362 85.9917 58.6485C96.1243 53.7667 105.528 52.4968 116.491 52.4229H118.707Z" fill="white" stroke="black"/>
<path d="M744.193 181V168.4H749.647C750.775 168.4 751.747 168.586 752.563 168.958C753.379 169.318 754.009 169.84 754.453 170.524C754.897 171.208 755.119 172.024 755.119 172.972C755.119 173.908 754.897 174.718 754.453 175.402C754.009 176.086 753.379 176.614 752.563 176.986C751.747 177.346 750.775 177.526 749.647 177.526H745.813L747.109 176.212V181H744.193ZM747.109 176.536L745.813 175.15H749.485C750.385 175.15 751.057 174.958 751.501 174.574C751.945 174.19 752.167 173.656 752.167 172.972C752.167 172.276 751.945 171.736 751.501 171.352C751.057 170.968 750.385 170.776 749.485 170.776H745.813L747.109 169.39V176.536Z" fill="white"/>
<path d="M740.346 181.144C739.866 181.144 739.452 180.982 739.104 180.658C738.768 180.322 738.6 179.896 738.6 179.38C738.6 178.864 738.768 178.45 739.104 178.138C739.452 177.814 739.866 177.652 740.346 177.652C740.838 177.652 741.252 177.814 741.588 178.138C741.924 178.45 742.092 178.864 742.092 179.38C742.092 179.896 741.924 180.322 741.588 180.658C741.252 180.982 740.838 181.144 740.346 181.144Z" fill="white"/>
<path d="M731.792 181.216C730.784 181.216 729.818 181.084 728.894 180.82C727.97 180.544 727.226 180.19 726.662 179.758L727.652 177.562C728.192 177.946 728.828 178.264 729.56 178.516C730.304 178.756 731.054 178.876 731.81 178.876C732.386 178.876 732.848 178.822 733.196 178.714C733.556 178.594 733.82 178.432 733.988 178.228C734.156 178.024 734.24 177.79 734.24 177.526C734.24 177.19 734.108 176.926 733.844 176.734C733.58 176.53 733.232 176.368 732.8 176.248C732.368 176.116 731.888 175.996 731.36 175.888C730.844 175.768 730.322 175.624 729.794 175.456C729.278 175.288 728.804 175.072 728.372 174.808C727.94 174.544 727.586 174.196 727.31 173.764C727.046 173.332 726.914 172.78 726.914 172.108C726.914 171.388 727.106 170.734 727.49 170.146C727.886 169.546 728.474 169.072 729.254 168.724C730.046 168.364 731.036 168.184 732.224 168.184C733.016 168.184 733.796 168.28 734.564 168.472C735.332 168.652 736.01 168.928 736.598 169.3L735.698 171.514C735.11 171.178 734.522 170.932 733.934 170.776C733.346 170.608 732.77 170.524 732.206 170.524C731.642 170.524 731.18 170.59 730.82 170.722C730.46 170.854 730.202 171.028 730.046 171.244C729.89 171.448 729.812 171.688 729.812 171.964C729.812 172.288 729.944 172.552 730.208 172.756C730.472 172.948 730.82 173.104 731.252 173.224C731.684 173.344 732.158 173.464 732.674 173.584C733.202 173.704 733.724 173.842 734.24 173.998C734.768 174.154 735.248 174.364 735.68 174.628C736.112 174.892 736.46 175.24 736.724 175.672C737 176.104 737.138 176.65 737.138 177.31C737.138 178.018 736.94 178.666 736.544 179.254C736.148 179.842 735.554 180.316 734.762 180.676C733.982 181.036 732.992 181.216 731.792 181.216Z" fill="white"/>
<path d="M723.629 181.144C723.149 181.144 722.735 180.982 722.387 180.658C722.051 180.322 721.883 179.896 721.883 179.38C721.883 178.864 722.051 178.45 722.387 178.138C722.735 177.814 723.149 177.652 723.629 177.652C724.121 177.652 724.535 177.814 724.871 178.138C725.207 178.45 725.375 178.864 725.375 179.38C725.375 179.896 725.207 180.322 724.871 180.658C724.535 180.982 724.121 181.144 723.629 181.144Z" fill="white"/>
<path d="M713.196 173.476H719.262V175.744H713.196V173.476ZM713.412 178.66H720.27V181H710.514V168.4H720.036V170.74H713.412V178.66Z" fill="white"/>
<path d="M703.012 177.058V174.808H708.106V177.058H703.012Z" fill="white"/>
<path d="M696.003 181.216C694.995 181.216 694.029 181.084 693.105 180.82C692.181 180.544 691.437 180.19 690.873 179.758L691.863 177.562C692.403 177.946 693.039 178.264 693.771 178.516C694.515 178.756 695.265 178.876 696.021 178.876C696.597 178.876 697.059 178.822 697.407 178.714C697.767 178.594 698.031 178.432 698.199 178.228C698.367 178.024 698.451 177.79 698.451 177.526C698.451 177.19 698.319 176.926 698.055 176.734C697.791 176.53 697.443 176.368 697.011 176.248C696.579 176.116 696.099 175.996 695.571 175.888C695.055 175.768 694.533 175.624 694.005 175.456C693.489 175.288 693.015 175.072 692.583 174.808C692.151 174.544 691.797 174.196 691.521 173.764C691.257 173.332 691.125 172.78 691.125 172.108C691.125 171.388 691.317 170.734 691.701 170.146C692.097 169.546 692.685 169.072 693.465 168.724C694.257 168.364 695.247 168.184 696.435 168.184C697.227 168.184 698.007 168.28 698.775 168.472C699.543 168.652 700.221 168.928 700.809 169.3L699.909 171.514C699.321 171.178 698.733 170.932 698.145 170.776C697.557 170.608 696.981 170.524 696.417 170.524C695.853 170.524 695.391 170.59 695.031 170.722C694.671 170.854 694.413 171.028 694.257 171.244C694.101 171.448 694.023 171.688 694.023 171.964C694.023 172.288 694.155 172.552 694.419 172.756C694.683 172.948 695.031 173.104 695.463 173.224C695.895 173.344 696.369 173.464 696.885 173.584C697.413 173.704 697.935 173.842 698.451 173.998C698.979 174.154 699.459 174.364 699.891 174.628C700.323 174.892 700.671 175.24 700.935 175.672C701.211 176.104 701.349 176.65 701.349 177.31C701.349 178.018 701.151 178.666 700.755 179.254C700.359 179.842 699.765 180.316 698.973 180.676C698.193 181.036 697.203 181.216 696.003 181.216Z" fill="white"/>
<path d="M687.84 181.144C687.36 181.144 686.946 180.982 686.598 180.658C686.262 180.322 686.094 179.896 686.094 179.38C686.094 178.864 686.262 178.45 686.598 178.138C686.946 177.814 687.36 177.652 687.84 177.652C688.332 177.652 688.746 177.814 689.082 178.138C689.418 178.45 689.586 178.864 689.586 179.38C689.586 179.896 689.418 180.322 689.082 180.658C688.746 180.982 688.332 181.144 687.84 181.144Z" fill="white"/>
<path d="M670.959 181L676.575 168.4H679.455L685.089 181H682.029L677.421 169.876H678.573L673.947 181H670.959ZM673.767 178.3L674.541 176.086H681.021L681.813 178.3H673.767Z" fill="white"/>
<path d="M668.188 181.144C667.708 181.144 667.294 180.982 666.946 180.658C666.61 180.322 666.442 179.896 666.442 179.38C666.442 178.864 666.61 178.45 666.946 178.138C667.294 177.814 667.708 177.652 668.188 177.652C668.68 177.652 669.094 177.814 669.43 178.138C669.766 178.45 669.934 178.864 669.934 179.38C669.934 179.896 669.766 180.322 669.43 180.658C669.094 180.982 668.68 181.144 668.188 181.144Z" fill="white"/>
<path d="M659.634 181.216C658.626 181.216 657.66 181.084 656.736 180.82C655.812 180.544 655.068 180.19 654.504 179.758L655.494 177.562C656.034 177.946 656.67 178.264 657.402 178.516C658.146 178.756 658.896 178.876 659.652 178.876C660.228 178.876 660.69 178.822 661.038 178.714C661.398 178.594 661.662 178.432 661.83 178.228C661.998 178.024 662.082 177.79 662.082 177.526C662.082 177.19 661.95 176.926 661.686 176.734C661.422 176.53 661.074 176.368 660.642 176.248C660.21 176.116 659.73 175.996 659.202 175.888C658.686 175.768 658.164 175.624 657.636 175.456C657.12 175.288 656.646 175.072 656.214 174.808C655.782 174.544 655.428 174.196 655.152 173.764C654.888 173.332 654.756 172.78 654.756 172.108C654.756 171.388 654.948 170.734 655.332 170.146C655.728 169.546 656.316 169.072 657.096 168.724C657.888 168.364 658.878 168.184 660.066 168.184C660.858 168.184 661.638 168.28 662.406 168.472C663.174 168.652 663.852 168.928 664.44 169.3L663.54 171.514C662.952 171.178 662.364 170.932 661.776 170.776C661.188 170.608 660.612 170.524 660.048 170.524C659.484 170.524 659.022 170.59 658.662 170.722C658.302 170.854 658.044 171.028 657.888 171.244C657.732 171.448 657.654 171.688 657.654 171.964C657.654 172.288 657.786 172.552 658.05 172.756C658.314 172.948 658.662 173.104 659.094 173.224C659.526 173.344 660 173.464 660.516 173.584C661.044 173.704 661.566 173.842 662.082 173.998C662.61 174.154 663.09 174.364 663.522 174.628C663.954 174.892 664.302 175.24 664.566 175.672C664.842 176.104 664.98 176.65 664.98 177.31C664.98 178.018 664.782 178.666 664.386 179.254C663.99 179.842 663.396 180.316 662.604 180.676C661.824 181.036 660.834 181.216 659.634 181.216Z" fill="white"/>
</g>
<defs>
<clipPath id="clip0_2036_1152">
<rect width="756" height="185" fill="white"/>
</clipPath>
</defs>
</svg>
